PathFileType	4	(X/Y/Z)	/Users/niels/Desktop/University/Third Semester/Perception and Action/Exam/Gymnastics Motion Tracking/Code for Gym Tracking/Analyzed Data/Webcam_Backflip/id7_3_baseline_Sports2D/id7_3_baseline_Sports2D_px_person00.trc
DataRate	CameraRate	NumFrames	NumMarkers	Units	OrigDataRate	OrigDataStartFrame	OrigNumFrames
29.810126582278482	29.810126582278482	7	22	m	29.810126582278482	19	158
Frame#	Time	Hip			RHip			RKnee			RAnkle			RBigToe			RSmallToe			RHeel			LHip			LKnee			LAnkle			LBigToe			LSmallToe			LHeel			Neck			Head			Nose			RShoulder			RElbow			RWrist			LShoulder			LElbow			LWrist		
		X1	Y1	Z1	X2	Y2	Z2	X3	Y3	Z3	X4	Y4	Z4	X5	Y5	Z5	X6	Y6	Z6	X7	Y7	Z7	X8	Y8	Z8	X9	Y9	Z9	X10	Y10	Z10	X11	Y11	Z11	X12	Y12	Z12	X13	Y13	Z13	X14	Y14	Z14	X15	Y15	Z15	X16	Y16	Z16	X17	Y17	Z17	X18	Y18	Z18	X19	Y19	Z19	X20	Y20	Z20	X21	Y21	Z21	X22	Y22	Z22
19	0.6373673036093418	0.9548722447602142	-0.4816840547451186	0.0	0.9546713014672165	-0.4818778018392966	0.0	0.9793393372477203	-0.592777147836954	0.0	0.9605515146689481	-0.7016835345180724	0.0	0.9972102814311113	-0.7334050707994639	0.0	0.9872593870385941	-0.7343313167319355	0.0	0.9498105923188852	-0.7164125436781033	0.0	0.9552323201905588	-0.47894701563480896	0.0	0.9737384886256778	-0.5913924250176332	0.0	0.9559285537430944	-0.6956173888208105	0.0	0.990436618015523	-0.719815062118285	0.0	0.984599042572144	-0.7170629184898718	0.0	0.9447369348896532	-0.7058393668618669	0.0	0.981565904873	-0.34501354016431385	0.0	1.0111769320486337	-0.27601707091836286	0.0	1.020591540235599	-0.3141118760066928	0.0	0.9748235698511564	-0.35419526494272824	0.0	0.9123979287059111	-0.3765023310231915	0.0	0.8466092036337277	-0.388582697326365	0.0	0.9783355211408643	-0.3551008114169178	0.0	0.9291058760652079	-0.3794117124953537	0.0	0.899918692061795	-0.39491501210748525	0.0
20	0.6709129511677282	0.9524939971950165	-0.48799048478746876	0.0	0.9519920582694621	-0.48817187665226197	0.0	0.9829478644496773	-0.5967625172675866	0.0	0.9586588943264912	-0.7052111247197305	0.0	0.9960582475191828	-0.7344424156487969	0.0	0.9860601444613288	-0.7358131151675613	0.0	0.9467089660720287	-0.7198515409061828	0.0	0.9524307560390997	-0.4852280300872026	0.0	0.9766405896842294	-0.5956135864211544	0.0	0.9549411031933676	-0.699449391097013	0.0	0.990164940873948	-0.7233449887239344	0.0	0.9838167186313773	-0.7207261868491688	0.0	0.9432423683419988	-0.7099199721856846	0.0	0.9818229292474941	-0.3520800171541469	0.0	1.0132709881514195	-0.2836893367675449	0.0	1.0218090169533487	-0.320844026341762	0.0	0.9749523639267997	-0.3623662225274132	0.0	0.9137903620505947	-0.3884305260458573	0.0	0.8496483017261796	-0.4050596499310128	0.0	0.9755485427226888	-0.3611788267081202	0.0	0.9257978436388038	-0.3865823274487829	0.0	0.8830361260170841	-0.4067333592094329	0.0
21	0.7044585987261146	0.9493909828813233	-0.498679370120537	0.0	0.9486302762940854	-0.49885842011557685	0.0	0.9870056472277806	-0.6041104692209546	0.0	0.9564860192655101	-0.7113738324267264	0.0	0.9943582989192485	-0.7380262347910677	0.0	0.9845017281704865	-0.7399106036420332	0.0	0.9435166778569399	-0.725914135988154	0.0	0.9486347309580998	-0.4959434654775695	0.0	0.979705582266658	-0.6028927029355933	0.0	0.9537062574727725	-0.7055142437963721	0.0	0.9892658904221693	-0.7290336499213306	0.0	0.9821868298137877	-0.7266156766415448	0.0	0.9412853131537738	-0.7166388875504909	0.0	0.9823391746284489	-0.3633927080063941	0.0	1.0153171828001628	-0.29575687690114705	0.0	1.0231458136896334	-0.3319166317039703	0.0	0.9759033579418565	-0.3752565936405334	0.0	0.9161359486022259	-0.4058688392237163	0.0	0.8547677047731581	-0.42870736334266496	0.0	0.9725435753215766	-0.371260508251259	0.0	0.9228552771910213	-0.3976822640662673	0.0	0.8723594340532784	-0.42298825572675003	0.0
22	0.738004246284501	0.9454923477426099	-0.5137618451623132	0.0	0.9445569378544756	-0.5139058017368376	0.0	0.990988217239622	-0.6148496601989256	0.0	0.9543001163169674	-0.7203365664989538	0.0	0.9925314455293257	-0.7444123745808934	0.0	0.9828586853925322	-0.7468289001684695	0.0	0.9407031514394716	-0.7346450742569518	0.0	0.9440877569053996	-0.5109704896774248	0.0	0.9827237453879595	-0.6132764757740198	0.0	0.9525045799692029	-0.7140861427772045	0.0	0.9882129033159381	-0.7369420469001765	0.0	0.9804798643679646	-0.7347423395590963	0.0	0.9391174398866334	-0.7259965716939937	0.0	0.9831322087899051	-0.3788598324401516	0.0	1.0168702856654979	-0.31205890889447474	0.0	1.0243734386605663	-0.34727201067470836	0.0	0.9776022638791757	-0.39272593669264844	0.0	0.9198545491976453	-0.4285354650435037	0.0	0.8630710307524712	-0.459054832387826	0.0	0.9699273318567371	-0.38553380029325296	0.0	0.9209328812360168	-0.41241071850951744	0.0	0.8703048094461818	-0.44175794703227955	0.0
23	0.7715498938428874	0.9410358547320515	-0.5329818093545895	0.0	0.94011354184887	-0.53303533995364	0.0	0.9940415992135695	-0.6291467785976185	0.0	0.9523200057782796	-0.7326918771457968	0.0	0.9909198039997514	-0.7542359783274311	0.0	0.9813090059548596	-0.757143203241881	0.0	0.9386066844738918	-0.7465148496343316	0.0	0.9393775067531848	-0.530031950280334	0.0	0.9852846291939871	-0.6270932441684699	0.0	0.9515277216160039	-0.7259455979860596	0.0	0.9874817656837307	-0.7476856133351508	0.0	0.9794043352709944	-0.7456874619437117	0.0	0.9370900156656066	-0.738469388810896	0.0	0.9840583372084892	-0.39811109841251113	0.0	1.0173558637897904	-0.3321242011496994	0.0	1.0250963337666164	-0.36645582573281427	0.0	0.9795760580872037	-0.4141822660372637	0.0	0.9254749485885033	-0.45568853868215536	0.0	0.8759578583127301	-0.4947197165943364	0.0	0.9682251221511102	-0.4040457688253013	0.0	0.9207854582130007	-0.4305881463968687	0.0	0.877564069982075	-0.46105210008883246	0.0
24	0.8050955414012739	0.9366438938963332	-0.5556320865879447	0.0	0.9360189427226902	-0.5555463484368013	0.0	0.9951394548885969	-0.6472382938252829	0.0	0.9506207287695574	-0.7491724298159267	0.0	0.98962912894686	-0.7682168361377819	0.0	0.9798800306376094	-0.7715342823119208	0.0	0.9373031143592011	-0.762187122148298	0.0	0.9353482084256138	-0.5525374303820388	0.0	0.9867665933816305	-0.644826887747678	0.0	0.9507838134285781	-0.7420745186540989	0.0	0.9872709919426488	-0.7621498774008246	0.0	0.9792820847485746	-0.7603232304330072	0.0	0.935497805799655	-0.754767575518809	0.0	0.9846985710119602	-0.42037063292553206	0.0	1.0162010897532634	-0.35501143753637093	0.0	1.0247951287568864	-0.3885687822834403	0.0	0.9810485371116041	-0.4384775969509454	0.0	0.9335243232441904	-0.485935584808544	0.0	0.8947849317949478	-0.5331196992284932	0.0	0.9675792535706409	-0.4263795406530352	0.0	0.9232710948207452	-0.4524075939518183	0.0	0.8934962133201784	-0.4802263796245865	0.0
25	0.8386411889596603	0.933235704611058	-0.5803818821635942	0.0	0.9331540667891108	-0.5801404908808789	0.0	0.9935190132522868	-0.669079314090345	0.0	0.9491213749036514	-0.7699695910714763	0.0	0.9885777571994057	-0.7865440941598714	0.0	0.9785331231022495	-0.7901995703625416	0.0	0.9365815916258152	-0.7819102998964794	0.0	0.9328143371019803	-0.5773032981287622	0.0	0.9864528094713177	-0.6666368930057639	0.0	0.9500494140197313	-0.7628774933179343	0.0	0.9872905816430716	-0.7807150998898709	0.0	0.9797166480732749	-0.7790448594341468	0.0	0.9343920424596301	-0.7751505813790285	0.0	0.9844290011694753	-0.4442621187449119	0.0	1.0130028880787634	-0.37919872551001393	0.0	1.0229503386933307	-0.4121942099201614	0.0	0.9812937230628851	-0.4639279968173525	0.0	0.9444225058173388	-0.5170573324701817	0.0	0.9202317961925824	-0.5702715304490694	0.0	0.9675601293401837	-0.4513008012532635	0.0	0.9294456795964335	-0.4779537784471131	0.0	0.9165548382423226	-0.5007637199657796	0.0
